<!-- icon666.com - MILLIONS vector ICONS FREE --><svg id="Capa_1" enable-background="new 0 0 512 512" viewBox="0 0 512 512" xmlns="http://www.w3.org/2000/svg"><g><path d="m439.219 129.831c-30.364-37.755-72.001-65.383-118.219-78.7v-36.131c0-8.284-6.716-15-15-15h-100c-8.284 0-15 6.716-15 15v36.131c-46.218 13.317-87.855 40.945-118.219 78.7-33.391 41.52-51.781 93.785-51.781 147.169 0 62.771 24.444 121.784 68.83 166.17s103.399 68.83 166.17 68.83 121.784-24.444 166.17-68.83 68.83-103.399 68.83-166.17c0-53.384-18.39-105.649-51.781-147.169zm-218.219-99.831h70v227c0 8.284 6.716 15 15 15h17.975l-67.975 81.569-67.975-81.569h17.975c8.284 0 15-6.716 15-15zm35 452c-113.038 0-205-91.962-205-205 0-47.245 15.616-91.633 45.159-128.368 24.671-30.676 57.856-53.686 94.841-66.088v159.456h-35c-5.82 0-11.115 3.367-13.584 8.638s-1.666 11.494 2.061 15.965l79.497 95.397h-67.974c-8.284 0-15 6.716-15 15s6.716 15 15 15h200c8.284 0 15-6.716 15-15s-6.716-15-15-15h-67.974l79.498-95.397c3.726-4.471 4.529-10.694 2.061-15.965-2.47-5.271-7.765-8.638-13.585-8.638h-35v-159.456c36.985 12.402 70.171 35.412 94.841 66.088 29.543 36.735 45.159 81.123 45.159 128.368 0 113.038-91.962 205-205 205z"></path></g></svg>